<svg width="1200" height="900" viewBox="0 0 1200 900" fill="none" xmlns="http://www.w3.org/2000/svg">
  <rect width="1200" height="900" fill="#E5E5E5"/>
  <ellipse cx="600" cy="725" rx="280" ry="45" fill="#22252C" fill-opacity="0.25"/>

  <path d="M360 540C360 392 470 290 600 290C730 290 840 392 840 540V560H360V540Z" fill="#5E6168"/>
  <path d="M420 360C470 322 535 300 600 300C665 300 730 322 780 360" stroke="#7A7D84" stroke-width="6" stroke-linecap="round"/>
  <path d="M600 300V560" stroke="#7A7D84" stroke-width="5"/>
  <circle cx="600" cy="300" r="14" fill="#3B3E45"/>

  <rect x="450" y="405" width="300" height="130" rx="28" fill="#B32025"/>
  <rect x="458" y="413" width="284" height="114" rx="22" stroke="#D74A4F" stroke-width="3" fill="none"/>
  <text x="600" y="487" text-anchor="middle" fill="#EFEFEF" font-size="52" font-weight="700" font-family="Georgia, serif" font-style="italic">Stonehorn</text>

  <path d="M355 560H845L825 640C804 724 722 780 632 780H568C478 780 396 724 375 640L355 560Z" fill="#2B2F38"/>
  <path d="M355 560H845" stroke="#9E1D22" stroke-width="12" stroke-linecap="round"/>
  <path d="M475 672C513 700 558 714 600 714C642 714 687 700 725 672" stroke="#484C56" stroke-width="4" stroke-linecap="round"/>
  <path d="M454 616C500 598 550 589 600 589C650 589 700 598 746 616" stroke="#3A3E47" stroke-width="4" stroke-linecap="round"/>

  <text x="600" y="845" text-anchor="middle" fill="#2B2F38" font-size="30" font-family="Arial, sans-serif" font-weight="700">RED + GREY CONCEPT</text>
</svg>
